{
  "asset": {
    "extras": {
      "author": "FINDME (https://sketchfab.com/FINDME)",
      "license": "CC-BY-4.0 (http://creativecommons.org/licenses/by/4.0/)",
      "source": "https://sketchfab.com/3d-models/face-mesh-diego-ebc995a40a1b49898fc4ddea996647d3",
      "title": "Face Mesh Diego"
    },
    "generator": "Sketchfab-12.66.0",
    "version": "2.0"
  },
  "buffers": [
    {
      "uri": "data:application/octet-stream;base64,",
      "byteLength": 71592
    }
  ],
  "bufferViews": [
    {
      "buffer": 0,
      "byteOffset": 40560,
      "byteLength": 31032,
      "target": 34962,
      "byteStride": 12
    },
    {
      "buffer": 0,
      "byteOffset": 30216,
      "byteLength": 10344,
      "target": 34962,
      "byteStride": 8
    },
    {
      "buffer": 0,
      "byteOffset": 0,
      "byteLength": 30216,
      "target": 34963
    }
  ],
  "accessors": [
    {
      "bufferView": 0,
      "byteOffset": 15516,
      "componentType": 5126,
      "normalized": false,
      "count": 1293,
      "max": [
        0.9897142052650452,
        0.9224594831466675,
        0.999489426612854
      ],
      "min": [
        -0.9897142052650452,
        -0.994944155216217,
        -0.051391102373600006
      ],
      "type": "VEC3"
    },
    {
      "bufferView": 0,
      "byteOffset": 0,
      "componentType": 5126,
      "normalized": false,
      "count": 1293,
      "max": [
        0.0746299996972084,
        0.10294000059366226,
        0.002899999963119626
      ],
      "min": [
        -0.0746299996972084,
        -0.08358000218868256,
        -0.10062000155448914
      ],
      "type": "VEC3"
    },
    {
      "bufferView": 1,
      "byteOffset": 0,
      "componentType": 5126,
      "normalized": false,
      "count": 1293,
      "max": [
        0.9369300007820129,
        0.9089099764823914
      ],
      "min": [
        0.06306999921798706,
        0.09365999698638916
      ],
      "type": "VEC2"
    },
    {
      "bufferView": 2,
      "byteOffset": 0,
      "componentType": 5125,
      "normalized": false,
      "count": 7554,
      "max": [
        1292
      ],
      "min": [
        0
      ],
      "type": "SCALAR"
    }
  ],
  "scene": 0,
  "scenes": [
    {
      "nodes": [
        5,
        6
      ],
      "name": "Sketchfab_Scene"
    }
  ],
  "nodes": [
    {
      "name": "Lamp"
    },
    {
      "name": "Lamp",
      "children": [
        0
      ],
      "matrix": [
        -0.2908615469932556,
        0.9551697969436646,
        -0.055191077291965485,
        0,
        -0.7711002826690674,
        -0.1998799741268158,
        0.6045199632644653,
        0,
        0.5663889050483704,
        0.21838994324207306,
        0.7946708798408508,
        0,
        4.076250076293945,
        1.0054500102996826,
        5.903860092163086,
        1
      ]
    },
    {
      "name": "faceMesh_0",
      "mesh": 0
    },
    {
      "name": "faceMesh",
      "children": [
        2
      ],
      "matrix": [
        36.21493911743164,
        0,
        0,
        0,
        0,
        -0.000010971180927299429,
        36.21493911743164,
        0,
        0,
        -36.21493911743164,
        -0.000010971180927299429,
        0,
        0,
        -1.47475004196167,
        0,
        1
      ]
    },
    {
      "name": "Root",
      "children": [
        1,
        3
      ]
    },
    {
      "name": "Sketchfab_model",
      "children": [
        4
      ],
      "matrix": [
        1,
        0,
        0,
        0,
        0,
        3.4228538225988814e-8,
        -0.9999998807907104,
        0,
        0,
        0.9999998807907104,
        3.4228538225988814e-8,
        0,
        0,
        0,
        0,
        1
      ]
    },
    {
      "name": "Directional light",
      "matrix": [
        -0.9448601603507996,
        1.7699186560804492e-9,
        0.3274742364883423,
        0,
        -0.03567530959844589,
        0.9940482378005981,
        -0.1029338389635086,
        0,
        -0.3255251944065094,
        -0.10894082486629486,
        -0.939236581325531,
        0,
        0,
        0,
        0,
        1
      ]
    }
  ],
  "meshes": [
    {
      "primitives": [
        {
          "material": 0,
          "mode": 4,
          "attributes": {
            "NORMAL": 0,
            "POSITION": 1,
            "TEXCOORD_0": 2
          },
          "indices": 3
        }
      ]
    }
  ],
  "materials": [
    {
      "pbrMetallicRoughness": {
        "baseColorFactor": [
          0,
          0,
          0,
          1
        ],
        "metallicFactor": 0,
        "roughnessFactor": 0.1
      },
      "emissiveFactor": [
        0,
        0,
        0
      ],
      "alphaMode": "OPAQUE",
      "doubleSided": true
    }
  ]
}